# xmcd CD database file
#
# Track frame offsets:
#	150
#	18762
#	40900
#	65807
#	87517
#	114977
#	146102
#	170412
#	191470
#	209462
#
# Disc length: 3037 seconds
#
# Revision: 0
# Processed by: cddbd v1.5.1PL0 Copyright (c) Steve Scherf et al.
# Submitted via: CDex 1.51
#
DISCID=8c0bdb0a
DTITLE=Great Jazz Trio - Collaboration
DYEAR=2002
DGENRE=Jazz
TTITLE0=Rhythm-A-Ning
TTITLE1=Summertime
TTITLE2=Satin Doll
TTITLE3=Blue Bossa
TTITLE4=Long Ago And Far Away
TTITLE5=The Shadow Of Your Smile
TTITLE6=Autumn Leaves
TTITLE7=My Funny Valentine
TTITLE8=Moose The Mooche
TTITLE9=Memories Of You
EXTD=YEAR: 2002
EXTT0=
EXTT1=
EXTT2=
EXTT3=
EXTT4=
EXTT5=
EXTT6=
EXTT7=
EXTT8=
EXTT9=
PLAYORDER=
